# AST/ASF file generated using VICON BodyLanguage
# -----------------------------------------------
:version 1.10
:name VICON
:units
  mass 1.0
  length 0.45
  angle deg
:documentation
   .ast/.asf automatically generated from VICON data using
   VICON BodyBuilder and BodyLanguage model FoxedUp or BRILLIANT.MOD
:root
   order TX TY TZ RX RY RZ
   axis XYZ
   position 0 0 0  
   orientation 0 0 0 
:bonedata
  begin
     id 1 
     name lhipjoint
     direction 0.543289 -0.788407 0.288535 
     length 2.57127 
     axis 0 0 0  XYZ
  end
  begin
     id 2 
     name lfemur
     direction 0.34202 -0.939693 0  
     length 8.47298  
     axis 0 0 20  XYZ
    dof rx ry rz
    limits (-160.0 20.0)
           (-70.0 70.0)
           (-60.0 70.0)
  end
  begin
     id 3 
     name ltibia
     direction 0.34202 -0.939693 0   
     length 8.13367   
     axis 0 0 20   XYZ
    dof rx
    limits (-10.0 170.0)
  end
  begin
     id 4 
     name lfoot
     direction 0.114037 -0.313314 0.942778   
     length 2.67113   
     axis -90 7.62852e-016 20   XYZ
    dof rx rz
    limits (-45.0 90.0)
           (-70.0 20.0)
  end
  begin
     id 5 
     name ltoes
     direction 1.536e-011 -4.21847e-011 1   
     length 1.32217   
     axis -90 7.62852e-016 20   XYZ
    dof rx
    limits (-90.0 20.0)
  end
  begin
     id 6 
     name rhipjoint
     direction -0.571293 -0.770752 0.282074   
     length 2.63017  
     axis 0 0 0  XYZ 
  end
  begin
     id 7 
     name rfemur
     direction -0.34202 -0.939693 0   
     length 8.60885   
     axis 0 0 -20   XYZ
    dof rx ry rz
    limits (-160.0 20.0)
           (-70.0 70.0)
           (-70.0 60.0)
  end
  begin
     id 8 
     name rtibia
     direction -0.34202 -0.939693 0   
     length 8.07673   
     axis 0 0 -20   XYZ
    dof rx
    limits (-10.0 170.0)
 end
 begin
     id 9 
     name rfoot
     direction -0.121336 -0.333368 0.934956   
     length 2.81602  
     axis -90 -7.62852e-016 -20   XYZ
    dof rx rz
    limits (-45.0 90.0)
           (-20.0 70.0)
  end
  begin
     id 10 
     name rtoes
     direction -1.53491e-011 -4.21808e-011 1   
     length 1.38905   
     axis -90 -7.62852e-016 -20   XYZ
    dof rx
    limits (-90.0 20.0)
  end
  begin
     id 11 
     name lowerback
     direction 0.0136776 0.999869 -0.00861835   
     length 2.14087   
     axis 0 0 0   XYZ
    dof rx ry rz
    limits (-20.0 45.0)
           (-30.0 30.0)
           (-30.0 30.0)
  end
  begin
     id 12 
     name upperback
     direction -0.00789158 0.999804 0.0181308   
     length 2.14151   
     axis 0 0 0   XYZ
    dof rx ry rz
    limits (-20.0 45.0)
           (-30.0 30.0)
           (-30.0 30.0)
  end
  begin
     id 13 
     name thorax
     direction -0.0135231 0.999666 0.0220247   
     length 2.13644   
     axis 0 0 0   XYZ
    dof rx ry rz
    limits (-20.0 45.0)
           (-30.0 30.0)
           (-30.0 30.0)
  end
  begin
     id 14 
     name lowerneck
     direction -0.0392259 0.997317 0.0618018   
     length 1.65045   
     axis 0 0 0   XYZ
    dof rx ry rz
    limits (-20.0 45.0)
           (-30.0 30.0)
           (-30.0 30.0)
  end
  begin
     id 15 
     name upperneck
     direction 0.0765547 0.994276 -0.0745319   
     length 1.66045   
     axis 0 0 0   XYZ
    dof rx ry rz
    limits (-20.0 45.0)
           (-30.0 30.0)
           (-30.0 30.0)
  end
  begin
     id 16
     name head
     direction 0.0241564 0.999031 -0.036785  
     length 1.66594  
     axis 0 0 0   XYZ
    dof rx ry rz
    limits (-20.0 45.0)
           (-30.0 30.0)
           (-30.0 30.0)
  end
  begin
     id 17 
     name lclavicle
     direction 0.967398 0.249018 0.0461573  
     length 3.75176  
     axis 0 0 0   XYZ
    dof ry rz
    limits (-20.0 10.0)
           (0.0 20.0)
  end
  begin
     id 18 
     name lhumerus
     direction 1 -4.48963e-011 -3.05005e-027   
     length 5.93342   
     axis 180 -30 -90   XYZ
    dof rx ry rz
    limits (-60.0 90.0)
           (-90.0 90.0)
           (-90.0 90.0)
  end
  begin
     id 19
     name lradius
     direction 1 -4.48957e-011 1.07006e-026   
     length 3.94763   
     axis 180 -30 -90   XYZ
    dof rx
    limits (-10.0 170.0)
  end
  begin
     id 20
     name lwrist
     direction 1 -4.48978e-011 1.92422e-026   
     length 1.97382   
     axis -1.18182e-014 90 90   XYZ
    dof ry
    limits (-180.0 0.0)
 end
  begin
     id 21 
     name lhand
     direction 1 -4.48931e-011 3.84844e-026   
     length 0.560187   
     axis -2.45563e-014 90 90   XYZ
    dof rx rz
    limits (-90.0 90.0)
           (-45.0 45.0)
  end
  begin
     id 22 
     name lfingers
     direction 1 -4.48952e-011 7.69687e-026   
     length 0.451637   
     axis -4.91126e-014 90 90   XYZ
    dof rx
    limits (0.0 90.0)
  end
  begin
     id 23
     name lthumb
     direction 0.707107 -6.34901e-011 0.707107   
     length 0.648463   
     axis -90 45 2.85299e-015   XYZ
    dof rx rz
    limits (-45.0 45.0)
           (-45.0 45.0)
  end
  begin
     id 24 
     name rclavicle
     direction -0.965946 0.258716 0.00371831   
     length 3.63667  
     axis 0 0 0   XYZ 
    dof ry rz
    limits (-10.0 20.0)
           (-20.0 0.0)
  end
  begin
     id 25 
     name rhumerus
     direction -1 -4.48966e-011 -1.78361e-028  
     length 6.28647   
     axis 180 30 90   XYZ
    dof rx ry rz
    limits (-90.0 60.0)
           (-90.0 90.0)
           (-90.0 90.0)
  end
  begin
     id 26 
     name rradius
     direction -1 -4.48961e-011 1.05248e-026   
     length 3.81645   
     axis 180 30 90   XYZ
    dof rx
    limits (-10.0 170.0)
  end
  begin
     id 27 
     name rwrist
     direction -1 -4.48979e-011 1.92422e-026   
     length 1.90822   
     axis -1.18182e-014 -90 -90   XYZ
    dof ry
    limits (-180.0 0.0)
  end
  begin
     id 28
     name rhand
     direction -1 -4.48937e-011 3.84844e-026   
     length 0.646185   
     axis -2.45563e-014 -90 -90   XYZ
    dof rx rz
    limits (-90.0 90.0)
           (-45.0 45.0)
  end
  begin
     id 29
     name rfingers
     direction -1 -4.48953e-011 7.69687e-026   
     length 0.520971   
     axis -4.91126e-014 -90 -90   XYZ
    dof rx
    limits (0.0 90.0)
  end
  begin
     id 30
     name rthumb
     direction -0.707107 -6.3494e-011 0.707107   
     length 0.748013   
     axis -90 -45 -2.85299e-015   XYZ
    dof rx rz
    limits (-45.0 45.0)
           (-45.0 45.0)
  end
:hierarchy
  begin
    root lhipjoint rhipjoint lowerback
    lhipjoint lfemur
    lfemur ltibia
    ltibia lfoot
    lfoot ltoes
    rhipjoint rfemur
    rfemur rtibia
    rtibia rfoot
    rfoot rtoes
    lowerback upperback
    upperback thorax
    thorax lowerneck lclavicle rclavicle
    lowerneck upperneck
    upperneck head
    lclavicle lhumerus
    lhumerus lradius
    lradius lwrist
    lwrist lhand lthumb
    lhand lfingers
    rclavicle rhumerus
    rhumerus rradius
    rradius rwrist
    rwrist rhand rthumb
    rhand rfingers
  end

#!OML:ASF H:\HAZMAT1\Patient Classification 1\Patient 3\Session 1\dancer.ASF
:FULLY-SPECIFIED
:DEGREES
92
upperback 8.147130 -6.874160 1.089360
rfoot -16.651199 -18.234600
lradius 13.685400
lthumb 10.809400 52.071201
rradius 15.494900
lwrist -40.879601
rhand -21.907000 -23.708000
rhumerus -15.148300 10.772000 319.174988
lowerneck -0.502301 0.191781 -4.882480
lhand -15.368400 22.369400
ltibia 72.376503
head 8.330360 -0.929148 2.351440
rwrist 36.887100
lfingers 7.125020
rtoes 12.358300
lowerback 7.814610 -5.223200 4.874580
rfingers 7.125020
lclavicle 0.000000 -0.000000
upperneck 26.526400 -1.328020 4.864160
rfemur -83.030098 -13.669500 51.167900
thorax 3.717370 -3.288070 -1.248000
rclavicle 0.000000 -0.000000
rtibia 52.218498
lfoot -22.022800 -4.368480
lhumerus -3.118090 49.018700 37.712002
rthumb 4.498600 -53.640202
root -11.745900 18.052601 16.298599 584.460999 239.847000 535.588989
ltoes -6.068700
lfemur -64.508102 10.772500 -30.388599
93
upperback 7.571410 -9.369230 3.138630
rfoot -0.467060 -5.836060
lradius 17.341999
lthumb 15.077100 53.066399
rradius 14.842900
lwrist -27.584700
rhand -17.724800 -26.007000
rhumerus -30.053499 5.895810 327.476013
lowerneck 1.518730 3.213590 -3.849020
lhand -10.941200 23.635401
ltibia 43.179901
head 7.984680 0.781369 1.109640
rwrist 37.021000
lfingers 7.125020
rtoes -8.811270
lowerback 5.564530 -6.948570 5.108720
rfingers 7.125020
lclavicle -0.000000 -0.000000
upperneck 26.937201 3.136880 0.944364
rfemur -73.371399 -7.604090 31.559401
thorax 4.546420 -4.570940 0.609018
rclavicle -0.000000 -0.000000
rtibia 40.407398
lfoot -19.153000 7.645000
lhumerus -24.321501 29.952900 16.068501
rthumb 8.535940 -55.814499
root -10.913400 19.304600 14.157600 588.716003 247.046997 529.716980
ltoes 1.572550
lfemur -50.671799 -0.889048 -29.004000
94
upperback 6.672380 -6.504440 5.187310
rfoot -9.785140 -34.410702
lradius 18.476999
lthumb 16.770399 55.207802
rradius 18.327600
lwrist -22.179800
rhand -19.711300 -30.717100
rhumerus -33.047798 10.566700 334.243988
lowerneck 1.834940 1.603770 -2.744670
lhand -9.182850 25.912100
ltibia 38.138599
head 10.437200 -0.674321 0.008549
rwrist 25.919500
lfingers 7.125020
rtoes 0.395552
lowerback 3.409390 -4.564090 6.538990
rfingers 7.125020
lclavicle 0.000000 -0.000000
upperneck 33.558800 0.697251 -1.189490
rfemur -42.050800 1.175990 10.253800
thorax 4.972810 -3.169410 1.711030
rclavicle 0.000000 -0.000000
rtibia 39.171200
lfoot -19.874399 26.077700
lhumerus -35.294701 21.301100 4.208310
rthumb 6.618480 -60.593700
root -10.284600 19.863600 12.488400 591.197021 252.628006 522.953003
ltoes 6.848940
lfemur -48.086899 -12.957300 -16.395901
95
upperback 5.433130 -6.062550 2.085240
rfoot -32.912300 -40.900700
lradius 16.476500
lthumb 1.712340 73.666702
rradius 14.405700
lwrist -31.387400
rhand -29.862600 -39.335999
rhumerus -47.076401 -3.035240 322.199005
lowerneck -0.104923 2.714970 -3.314890
lhand -24.792101 43.693802
ltibia 39.125801
head 12.957600 -0.558256 0.666153
rwrist 33.262100
lfingers 7.125020
rtoes -5.181660
lowerback 0.884115 -4.342150 3.962730
rfingers 7.125020
lclavicle 0.000000 -0.000000
upperneck 38.715099 1.391720 0.251583
rfemur -31.110500 11.567400 16.069599
thorax 4.958280 -2.930680 -0.245673
rclavicle 0.000000 -0.000000
rtibia 35.487701
lfoot -15.463500 27.346901
lhumerus -55.075100 25.743999 -3.186520
rthumb -3.184800 -69.292000
root -10.368000 20.268101 10.562100 577.385010 259.882996 530.856018
ltoes 4.035290
lfemur -42.766701 -13.105600 -13.902500
96
upperback 2.116000 -6.095540 1.159410
rfoot -25.533001 -38.659100
lradius 7.296450
lthumb 8.422070 68.273003
rradius 10.308500
lwrist -50.847900
rhand -13.723600 -28.061001
rhumerus -39.370701 3.204820 274.992004
lowerneck -6.305320 0.291202 -2.259890
lhand -17.842800 38.460999
ltibia 38.507801
head 15.160800 -1.692600 0.302874
rwrist 29.692600
lfingers 7.125020
rtoes -16.318600
lowerback -0.286461 -4.482540 5.861930
rfingers 7.125020
lclavicle 0.000000 -0.000000
upperneck 40.307800 -1.888060 0.788024
rfemur -21.693399 1.645900 20.159800
thorax 1.863250 -2.957500 -2.157050
rclavicle 0.000000 -0.000000
rtibia 32.474602
lfoot -8.391420 15.593000
lhumerus -45.587898 54.420200 44.973099
rthumb 12.395600 -57.673500
root -10.505000 20.214300 9.041980 551.744019 253.393005 551.312988
ltoes -3.964860
lfemur -44.450199 -8.074740 -25.471701
